<?xml version="1.0" encoding="utf-8" standalone="no"?>
<!DOCTYPE svg PUBLIC "-//W3C//DTD SVG 1.1//EN"
  "http://www.w3.org/Graphics/SVG/1.1/DTD/svg11.dtd">
<svg xmlns:xlink="http://www.w3.org/1999/xlink" width="432pt" height="288pt" viewBox="0 0 432 288" xmlns="http://www.w3.org/2000/svg" version="1.1">
 <metadata>
  <rdf:RDF xmlns:dc="http://purl.org/dc/elements/1.1/" xmlns:cc="http://creativecommons.org/ns#" xmlns:rdf="http://www.w3.org/1999/02/22-rdf-syntax-ns#">
   <cc:Work>
    <dc:type rdf:resource="http://purl.org/dc/dcmitype/StillImage"/>
    <dc:date>2024-10-05T13:41:32.981588</dc:date>
    <dc:format>image/svg+xml</dc:format>
    <dc:creator>
     <cc:Agent>
      <dc:title>Matplotlib v3.5.3, https://matplotlib.org/</dc:title>
     </cc:Agent>
    </dc:creator>
   </cc:Work>
  </rdf:RDF>
 </metadata>
 <defs>
  <style type="text/css">*{stroke-linejoin: round; stroke-linecap: butt}</style>
 </defs>
 <g id="figure_1">
  <g id="patch_1">
   <path d="M 0 288 
L 432 288 
L 432 0 
L 0 0 
z
" style="fill: #ffffff"/>
  </g>
  <g id="axes_1">
   <g id="patch_2">
    <path d="M 54 256.32 
L 388.8 256.32 
L 388.8 34.56 
L 54 34.56 
z
" style="fill: #ffffff"/>
   </g>
   <g id="patch_3">
    <path d="M 109.8 256.32 
L 109.8 256.32 
L 109.8 256.32 
L 109.8 256.32 
z
" clip-path="url(#pc3f17cf7c0)" style="fill: #3274a1; stroke: #3f3f3f; stroke-linejoin: miter"/>
   </g>
   <g id="patch_4">
    <path d="M 109.8 256.32 
L 109.8 256.32 
L 109.8 256.32 
L 109.8 256.32 
z
" clip-path="url(#pc3f17cf7c0)" style="fill: #e1812c; stroke: #3f3f3f; stroke-linejoin: miter"/>
   </g>
   <g id="matplotlib.axis_1">
    <g id="xtick_1">
     <g id="line2d_1">
      <defs>
       <path id="m2f4c85da68" d="M 0 0 
L 0 3.5 
" style="stroke: #000000; stroke-width: 0.8"/>
      </defs>
      <g>
       <use xlink:href="#m2f4c85da68" x="109.8" y="256.32" style="stroke: #000000; stroke-width: 0.8"/>
      </g>
     </g>
     <g id="text_1">
      <!-- 10 -->
      <g transform="translate(103.4375 270.918437)scale(0.1 -0.1)">
       <defs>
        <path id="DejaVuSans-31" d="M 794 531 
L 1825 531 
L 1825 4091 
L 703 3866 
L 703 4441 
L 1819 4666 
L 2450 4666 
L 2450 531 
L 3481 531 
L 3481 0 
L 794 0 
L 794 531 
z
" transform="scale(0.015625)"/>
        <path id="DejaVuSans-30" d="M 2034 4250 
Q 1547 4250 1301 3770 
Q 1056 3291 1056 2328 
Q 1056 1369 1301 889 
Q 1547 409 2034 409 
Q 2525 409 2770 889 
Q 3016 1369 3016 2328 
Q 3016 3291 2770 3770 
Q 2525 4250 2034 4250 
z
M 2034 4750 
Q 2819 4750 3233 4129 
Q 3647 3509 3647 2328 
Q 3647 1150 3233 529 
Q 2819 -91 2034 -91 
Q 1250 -91 836 529 
Q 422 1150 422 2328 
Q 422 3509 836 4129 
Q 1250 4750 2034 4750 
z
" transform="scale(0.015625)"/>
       </defs>
       <use xlink:href="#DejaVuSans-31"/>
       <use xlink:href="#DejaVuSans-30" x="63.623047"/>
      </g>
     </g>
    </g>
    <g id="xtick_2">
     <g id="line2d_2">
      <g>
       <use xlink:href="#m2f4c85da68" x="221.4" y="256.32" style="stroke: #000000; stroke-width: 0.8"/>
      </g>
     </g>
     <g id="text_2">
      <!-- 20 -->
      <g transform="translate(215.0375 270.918437)scale(0.1 -0.1)">
       <defs>
        <path id="DejaVuSans-32" d="M 1228 531 
L 3431 531 
L 3431 0 
L 469 0 
L 469 531 
Q 828 903 1448 1529 
Q 2069 2156 2228 2338 
Q 2531 2678 2651 2914 
Q 2772 3150 2772 3378 
Q 2772 3750 2511 3984 
Q 2250 4219 1831 4219 
Q 1534 4219 1204 4116 
Q 875 4013 500 3803 
L 500 4441 
Q 881 4594 1212 4672 
Q 1544 4750 1819 4750 
Q 2544 4750 2975 4387 
Q 3406 4025 3406 3419 
Q 3406 3131 3298 2873 
Q 3191 2616 2906 2266 
Q 2828 2175 2409 1742 
Q 1991 1309 1228 531 
z
" transform="scale(0.015625)"/>
       </defs>
       <use xlink:href="#DejaVuSans-32"/>
       <use xlink:href="#DejaVuSans-30" x="63.623047"/>
      </g>
     </g>
    </g>
    <g id="xtick_3">
     <g id="line2d_3">
      <g>
       <use xlink:href="#m2f4c85da68" x="333" y="256.32" style="stroke: #000000; stroke-width: 0.8"/>
      </g>
     </g>
     <g id="text_3">
      <!-- 30 -->
      <g transform="translate(326.6375 270.918437)scale(0.1 -0.1)">
       <defs>
        <path id="DejaVuSans-33" d="M 2597 2516 
Q 3050 2419 3304 2112 
Q 3559 1806 3559 1356 
Q 3559 666 3084 287 
Q 2609 -91 1734 -91 
Q 1441 -91 1130 -33 
Q 819 25 488 141 
L 488 750 
Q 750 597 1062 519 
Q 1375 441 1716 441 
Q 2309 441 2620 675 
Q 2931 909 2931 1356 
Q 2931 1769 2642 2001 
Q 2353 2234 1838 2234 
L 1294 2234 
L 1294 2753 
L 1863 2753 
Q 2328 2753 2575 2939 
Q 2822 3125 2822 3475 
Q 2822 3834 2567 4026 
Q 2313 4219 1838 4219 
Q 1578 4219 1281 4162 
Q 984 4106 628 3988 
L 628 4550 
Q 988 4650 1302 4700 
Q 1616 4750 1894 4750 
Q 2613 4750 3031 4423 
Q 3450 4097 3450 3541 
Q 3450 3153 3228 2886 
Q 3006 2619 2597 2516 
z
" transform="scale(0.015625)"/>
       </defs>
       <use xlink:href="#DejaVuSans-33"/>
       <use xlink:href="#DejaVuSans-30" x="63.623047"/>
      </g>
     </g>
    </g>
    <g id="text_4">
     <!-- Fetal Depth (mm) -->
     <g transform="translate(177.259375 284.596563)scale(0.1 -0.1)">
      <defs>
       <path id="DejaVuSans-46" d="M 628 4666 
L 3309 4666 
L 3309 4134 
L 1259 4134 
L 1259 2759 
L 3109 2759 
L 3109 2228 
L 1259 2228 
L 1259 0 
L 628 0 
L 628 4666 
z
" transform="scale(0.015625)"/>
       <path id="DejaVuSans-65" d="M 3597 1894 
L 3597 1613 
L 953 1613 
Q 991 1019 1311 708 
Q 1631 397 2203 397 
Q 2534 397 2845 478 
Q 3156 559 3463 722 
L 3463 178 
Q 3153 47 2828 -22 
Q 2503 -91 2169 -91 
Q 1331 -91 842 396 
Q 353 884 353 1716 
Q 353 2575 817 3079 
Q 1281 3584 2069 3584 
Q 2775 3584 3186 3129 
Q 3597 2675 3597 1894 
z
M 3022 2063 
Q 3016 2534 2758 2815 
Q 2500 3097 2075 3097 
Q 1594 3097 1305 2825 
Q 1016 2553 972 2059 
L 3022 2063 
z
" transform="scale(0.015625)"/>
       <path id="DejaVuSans-74" d="M 1172 4494 
L 1172 3500 
L 2356 3500 
L 2356 3053 
L 1172 3053 
L 1172 1153 
Q 1172 725 1289 603 
Q 1406 481 1766 481 
L 2356 481 
L 2356 0 
L 1766 0 
Q 1100 0 847 248 
Q 594 497 594 1153 
L 594 3053 
L 172 3053 
L 172 3500 
L 594 3500 
L 594 4494 
L 1172 4494 
z
" transform="scale(0.015625)"/>
       <path id="DejaVuSans-61" d="M 2194 1759 
Q 1497 1759 1228 1600 
Q 959 1441 959 1056 
Q 959 750 1161 570 
Q 1363 391 1709 391 
Q 2188 391 2477 730 
Q 2766 1069 2766 1631 
L 2766 1759 
L 2194 1759 
z
M 3341 1997 
L 3341 0 
L 2766 0 
L 2766 531 
Q 2569 213 2275 61 
Q 1981 -91 1556 -91 
Q 1019 -91 701 211 
Q 384 513 384 1019 
Q 384 1609 779 1909 
Q 1175 2209 1959 2209 
L 2766 2209 
L 2766 2266 
Q 2766 2663 2505 2880 
Q 2244 3097 1772 3097 
Q 1472 3097 1187 3025 
Q 903 2953 641 2809 
L 641 3341 
Q 956 3463 1253 3523 
Q 1550 3584 1831 3584 
Q 2591 3584 2966 3190 
Q 3341 2797 3341 1997 
z
" transform="scale(0.015625)"/>
       <path id="DejaVuSans-6c" d="M 603 4863 
L 1178 4863 
L 1178 0 
L 603 0 
L 603 4863 
z
" transform="scale(0.015625)"/>
       <path id="DejaVuSans-20" transform="scale(0.015625)"/>
       <path id="DejaVuSans-44" d="M 1259 4147 
L 1259 519 
L 2022 519 
Q 2988 519 3436 956 
Q 3884 1394 3884 2338 
Q 3884 3275 3436 3711 
Q 2988 4147 2022 4147 
L 1259 4147 
z
M 628 4666 
L 1925 4666 
Q 3281 4666 3915 4102 
Q 4550 3538 4550 2338 
Q 4550 1131 3912 565 
Q 3275 0 1925 0 
L 628 0 
L 628 4666 
z
" transform="scale(0.015625)"/>
       <path id="DejaVuSans-70" d="M 1159 525 
L 1159 -1331 
L 581 -1331 
L 581 3500 
L 1159 3500 
L 1159 2969 
Q 1341 3281 1617 3432 
Q 1894 3584 2278 3584 
Q 2916 3584 3314 3078 
Q 3713 2572 3713 1747 
Q 3713 922 3314 415 
Q 2916 -91 2278 -91 
Q 1894 -91 1617 61 
Q 1341 213 1159 525 
z
M 3116 1747 
Q 3116 2381 2855 2742 
Q 2594 3103 2138 3103 
Q 1681 3103 1420 2742 
Q 1159 2381 1159 1747 
Q 1159 1113 1420 752 
Q 1681 391 2138 391 
Q 2594 391 2855 752 
Q 3116 1113 3116 1747 
z
" transform="scale(0.015625)"/>
       <path id="DejaVuSans-68" d="M 3513 2113 
L 3513 0 
L 2938 0 
L 2938 2094 
Q 2938 2591 2744 2837 
Q 2550 3084 2163 3084 
Q 1697 3084 1428 2787 
Q 1159 2491 1159 1978 
L 1159 0 
L 581 0 
L 581 4863 
L 1159 4863 
L 1159 2956 
Q 1366 3272 1645 3428 
Q 1925 3584 2291 3584 
Q 2894 3584 3203 3211 
Q 3513 2838 3513 2113 
z
" transform="scale(0.015625)"/>
       <path id="DejaVuSans-28" d="M 1984 4856 
Q 1566 4138 1362 3434 
Q 1159 2731 1159 2009 
Q 1159 1288 1364 580 
Q 1569 -128 1984 -844 
L 1484 -844 
Q 1016 -109 783 600 
Q 550 1309 550 2009 
Q 550 2706 781 3412 
Q 1013 4119 1484 4856 
L 1984 4856 
z
" transform="scale(0.015625)"/>
       <path id="DejaVuSans-6d" d="M 3328 2828 
Q 3544 3216 3844 3400 
Q 4144 3584 4550 3584 
Q 5097 3584 5394 3201 
Q 5691 2819 5691 2113 
L 5691 0 
L 5113 0 
L 5113 2094 
Q 5113 2597 4934 2840 
Q 4756 3084 4391 3084 
Q 3944 3084 3684 2787 
Q 3425 2491 3425 1978 
L 3425 0 
L 2847 0 
L 2847 2094 
Q 2847 2600 2669 2842 
Q 2491 3084 2119 3084 
Q 1678 3084 1418 2786 
Q 1159 2488 1159 1978 
L 1159 0 
L 581 0 
L 581 3500 
L 1159 3500 
L 1159 2956 
Q 1356 3278 1631 3431 
Q 1906 3584 2284 3584 
Q 2666 3584 2933 3390 
Q 3200 3197 3328 2828 
z
" transform="scale(0.015625)"/>
       <path id="DejaVuSans-29" d="M 513 4856 
L 1013 4856 
Q 1481 4119 1714 3412 
Q 1947 2706 1947 2009 
Q 1947 1309 1714 600 
Q 1481 -109 1013 -844 
L 513 -844 
Q 928 -128 1133 580 
Q 1338 1288 1338 2009 
Q 1338 2731 1133 3434 
Q 928 4138 513 4856 
z
" transform="scale(0.015625)"/>
      </defs>
      <use xlink:href="#DejaVuSans-46"/>
      <use xlink:href="#DejaVuSans-65" x="52.019531"/>
      <use xlink:href="#DejaVuSans-74" x="113.542969"/>
      <use xlink:href="#DejaVuSans-61" x="152.751953"/>
      <use xlink:href="#DejaVuSans-6c" x="214.03125"/>
      <use xlink:href="#DejaVuSans-20" x="241.814453"/>
      <use xlink:href="#DejaVuSans-44" x="273.601562"/>
      <use xlink:href="#DejaVuSans-65" x="350.603516"/>
      <use xlink:href="#DejaVuSans-70" x="412.126953"/>
      <use xlink:href="#DejaVuSans-74" x="475.603516"/>
      <use xlink:href="#DejaVuSans-68" x="514.8125"/>
      <use xlink:href="#DejaVuSans-20" x="578.191406"/>
      <use xlink:href="#DejaVuSans-28" x="609.978516"/>
      <use xlink:href="#DejaVuSans-6d" x="648.992188"/>
      <use xlink:href="#DejaVuSans-6d" x="746.404297"/>
      <use xlink:href="#DejaVuSans-29" x="843.816406"/>
     </g>
    </g>
   </g>
   <g id="matplotlib.axis_2">
    <g id="ytick_1">
     <g id="line2d_4">
      <defs>
       <path id="m0ac48038c3" d="M 0 0 
L -3.5 0 
" style="stroke: #000000; stroke-width: 0.8"/>
      </defs>
      <g>
       <use xlink:href="#m0ac48038c3" x="54" y="256.32" style="stroke: #000000; stroke-width: 0.8"/>
      </g>
     </g>
     <g id="text_5">
      <!-- 0 -->
      <g transform="translate(40.6375 260.119219)scale(0.1 -0.1)">
       <use xlink:href="#DejaVuSans-30"/>
      </g>
     </g>
    </g>
    <g id="ytick_2">
     <g id="line2d_5">
      <g>
       <use xlink:href="#m0ac48038c3" x="54" y="211.968" style="stroke: #000000; stroke-width: 0.8"/>
      </g>
     </g>
     <g id="text_6">
      <!-- 2000 -->
      <g transform="translate(21.55 215.767219)scale(0.1 -0.1)">
       <use xlink:href="#DejaVuSans-32"/>
       <use xlink:href="#DejaVuSans-30" x="63.623047"/>
       <use xlink:href="#DejaVuSans-30" x="127.246094"/>
       <use xlink:href="#DejaVuSans-30" x="190.869141"/>
      </g>
     </g>
    </g>
    <g id="ytick_3">
     <g id="line2d_6">
      <g>
       <use xlink:href="#m0ac48038c3" x="54" y="167.616" style="stroke: #000000; stroke-width: 0.8"/>
      </g>
     </g>
     <g id="text_7">
      <!-- 4000 -->
      <g transform="translate(21.55 171.415219)scale(0.1 -0.1)">
       <defs>
        <path id="DejaVuSans-34" d="M 2419 4116 
L 825 1625 
L 2419 1625 
L 2419 4116 
z
M 2253 4666 
L 3047 4666 
L 3047 1625 
L 3713 1625 
L 3713 1100 
L 3047 1100 
L 3047 0 
L 2419 0 
L 2419 1100 
L 313 1100 
L 313 1709 
L 2253 4666 
z
" transform="scale(0.015625)"/>
       </defs>
       <use xlink:href="#DejaVuSans-34"/>
       <use xlink:href="#DejaVuSans-30" x="63.623047"/>
       <use xlink:href="#DejaVuSans-30" x="127.246094"/>
       <use xlink:href="#DejaVuSans-30" x="190.869141"/>
      </g>
     </g>
    </g>
    <g id="ytick_4">
     <g id="line2d_7">
      <g>
       <use xlink:href="#m0ac48038c3" x="54" y="123.264" style="stroke: #000000; stroke-width: 0.8"/>
      </g>
     </g>
     <g id="text_8">
      <!-- 6000 -->
      <g transform="translate(21.55 127.063219)scale(0.1 -0.1)">
       <defs>
        <path id="DejaVuSans-36" d="M 2113 2584 
Q 1688 2584 1439 2293 
Q 1191 2003 1191 1497 
Q 1191 994 1439 701 
Q 1688 409 2113 409 
Q 2538 409 2786 701 
Q 3034 994 3034 1497 
Q 3034 2003 2786 2293 
Q 2538 2584 2113 2584 
z
M 3366 4563 
L 3366 3988 
Q 3128 4100 2886 4159 
Q 2644 4219 2406 4219 
Q 1781 4219 1451 3797 
Q 1122 3375 1075 2522 
Q 1259 2794 1537 2939 
Q 1816 3084 2150 3084 
Q 2853 3084 3261 2657 
Q 3669 2231 3669 1497 
Q 3669 778 3244 343 
Q 2819 -91 2113 -91 
Q 1303 -91 875 529 
Q 447 1150 447 2328 
Q 447 3434 972 4092 
Q 1497 4750 2381 4750 
Q 2619 4750 2861 4703 
Q 3103 4656 3366 4563 
z
" transform="scale(0.015625)"/>
       </defs>
       <use xlink:href="#DejaVuSans-36"/>
       <use xlink:href="#DejaVuSans-30" x="63.623047"/>
       <use xlink:href="#DejaVuSans-30" x="127.246094"/>
       <use xlink:href="#DejaVuSans-30" x="190.869141"/>
      </g>
     </g>
    </g>
    <g id="ytick_5">
     <g id="line2d_8">
      <g>
       <use xlink:href="#m0ac48038c3" x="54" y="78.912" style="stroke: #000000; stroke-width: 0.8"/>
      </g>
     </g>
     <g id="text_9">
      <!-- 8000 -->
      <g transform="translate(21.55 82.711219)scale(0.1 -0.1)">
       <defs>
        <path id="DejaVuSans-38" d="M 2034 2216 
Q 1584 2216 1326 1975 
Q 1069 1734 1069 1313 
Q 1069 891 1326 650 
Q 1584 409 2034 409 
Q 2484 409 2743 651 
Q 3003 894 3003 1313 
Q 3003 1734 2745 1975 
Q 2488 2216 2034 2216 
z
M 1403 2484 
Q 997 2584 770 2862 
Q 544 3141 544 3541 
Q 544 4100 942 4425 
Q 1341 4750 2034 4750 
Q 2731 4750 3128 4425 
Q 3525 4100 3525 3541 
Q 3525 3141 3298 2862 
Q 3072 2584 2669 2484 
Q 3125 2378 3379 2068 
Q 3634 1759 3634 1313 
Q 3634 634 3220 271 
Q 2806 -91 2034 -91 
Q 1263 -91 848 271 
Q 434 634 434 1313 
Q 434 1759 690 2068 
Q 947 2378 1403 2484 
z
M 1172 3481 
Q 1172 3119 1398 2916 
Q 1625 2713 2034 2713 
Q 2441 2713 2670 2916 
Q 2900 3119 2900 3481 
Q 2900 3844 2670 4047 
Q 2441 4250 2034 4250 
Q 1625 4250 1398 4047 
Q 1172 3844 1172 3481 
z
" transform="scale(0.015625)"/>
       </defs>
       <use xlink:href="#DejaVuSans-38"/>
       <use xlink:href="#DejaVuSans-30" x="63.623047"/>
       <use xlink:href="#DejaVuSans-30" x="127.246094"/>
       <use xlink:href="#DejaVuSans-30" x="190.869141"/>
      </g>
     </g>
    </g>
    <g id="ytick_6">
     <g id="line2d_9">
      <g>
       <use xlink:href="#m0ac48038c3" x="54" y="34.56" style="stroke: #000000; stroke-width: 0.8"/>
      </g>
     </g>
     <g id="text_10">
      <!-- 10000 -->
      <g transform="translate(15.1875 38.359219)scale(0.1 -0.1)">
       <use xlink:href="#DejaVuSans-31"/>
       <use xlink:href="#DejaVuSans-30" x="63.623047"/>
       <use xlink:href="#DejaVuSans-30" x="127.246094"/>
       <use xlink:href="#DejaVuSans-30" x="190.869141"/>
       <use xlink:href="#DejaVuSans-30" x="254.492188"/>
      </g>
     </g>
    </g>
    <g id="text_11">
     <!-- Pathlength (mm) -->
     <g transform="translate(9.107812 187.591563)rotate(-90)scale(0.1 -0.1)">
      <defs>
       <path id="DejaVuSans-50" d="M 1259 4147 
L 1259 2394 
L 2053 2394 
Q 2494 2394 2734 2622 
Q 2975 2850 2975 3272 
Q 2975 3691 2734 3919 
Q 2494 4147 2053 4147 
L 1259 4147 
z
M 628 4666 
L 2053 4666 
Q 2838 4666 3239 4311 
Q 3641 3956 3641 3272 
Q 3641 2581 3239 2228 
Q 2838 1875 2053 1875 
L 1259 1875 
L 1259 0 
L 628 0 
L 628 4666 
z
" transform="scale(0.015625)"/>
       <path id="DejaVuSans-6e" d="M 3513 2113 
L 3513 0 
L 2938 0 
L 2938 2094 
Q 2938 2591 2744 2837 
Q 2550 3084 2163 3084 
Q 1697 3084 1428 2787 
Q 1159 2491 1159 1978 
L 1159 0 
L 581 0 
L 581 3500 
L 1159 3500 
L 1159 2956 
Q 1366 3272 1645 3428 
Q 1925 3584 2291 3584 
Q 2894 3584 3203 3211 
Q 3513 2838 3513 2113 
z
" transform="scale(0.015625)"/>
       <path id="DejaVuSans-67" d="M 2906 1791 
Q 2906 2416 2648 2759 
Q 2391 3103 1925 3103 
Q 1463 3103 1205 2759 
Q 947 2416 947 1791 
Q 947 1169 1205 825 
Q 1463 481 1925 481 
Q 2391 481 2648 825 
Q 2906 1169 2906 1791 
z
M 3481 434 
Q 3481 -459 3084 -895 
Q 2688 -1331 1869 -1331 
Q 1566 -1331 1297 -1286 
Q 1028 -1241 775 -1147 
L 775 -588 
Q 1028 -725 1275 -790 
Q 1522 -856 1778 -856 
Q 2344 -856 2625 -561 
Q 2906 -266 2906 331 
L 2906 616 
Q 2728 306 2450 153 
Q 2172 0 1784 0 
Q 1141 0 747 490 
Q 353 981 353 1791 
Q 353 2603 747 3093 
Q 1141 3584 1784 3584 
Q 2172 3584 2450 3431 
Q 2728 3278 2906 2969 
L 2906 3500 
L 3481 3500 
L 3481 434 
z
" transform="scale(0.015625)"/>
      </defs>
      <use xlink:href="#DejaVuSans-50"/>
      <use xlink:href="#DejaVuSans-61" x="55.802734"/>
      <use xlink:href="#DejaVuSans-74" x="117.082031"/>
      <use xlink:href="#DejaVuSans-68" x="156.291016"/>
      <use xlink:href="#DejaVuSans-6c" x="219.669922"/>
      <use xlink:href="#DejaVuSans-65" x="247.453125"/>
      <use xlink:href="#DejaVuSans-6e" x="308.976562"/>
      <use xlink:href="#DejaVuSans-67" x="372.355469"/>
      <use xlink:href="#DejaVuSans-74" x="435.832031"/>
      <use xlink:href="#DejaVuSans-68" x="475.041016"/>
      <use xlink:href="#DejaVuSans-20" x="538.419922"/>
      <use xlink:href="#DejaVuSans-28" x="570.207031"/>
      <use xlink:href="#DejaVuSans-6d" x="609.220703"/>
      <use xlink:href="#DejaVuSans-6d" x="706.632812"/>
      <use xlink:href="#DejaVuSans-29" x="804.044922"/>
     </g>
    </g>
   </g>
   <g id="patch_5">
    <path d="M 65.16 241.585095 
L 109.8 241.585095 
L 109.8 198.06147 
L 65.16 198.06147 
L 65.16 241.585095 
z
" clip-path="url(#pc3f17cf7c0)" style="fill: #3274a1; stroke: #3f3f3f; stroke-linejoin: miter"/>
   </g>
   <g id="line2d_10">
    <path d="M 87.48 241.585095 
L 87.48 254.533443 
" clip-path="url(#pc3f17cf7c0)" style="fill: none; stroke: #3f3f3f"/>
   </g>
   <g id="line2d_11">
    <path d="M 87.48 198.06147 
L 87.48 132.776559 
" clip-path="url(#pc3f17cf7c0)" style="fill: none; stroke: #3f3f3f"/>
   </g>
   <g id="line2d_12">
    <path d="M 76.32 254.533443 
L 98.64 254.533443 
" clip-path="url(#pc3f17cf7c0)" style="fill: none; stroke: #3f3f3f; stroke-linecap: square"/>
   </g>
   <g id="line2d_13">
    <path d="M 76.32 132.776559 
L 98.64 132.776559 
" clip-path="url(#pc3f17cf7c0)" style="fill: none; stroke: #3f3f3f; stroke-linecap: square"/>
   </g>
   <g id="patch_6">
    <path d="M 176.76 235.24126 
L 221.4 235.24126 
L 221.4 194.256536 
L 176.76 194.256536 
L 176.76 235.24126 
z
" clip-path="url(#pc3f17cf7c0)" style="fill: #3274a1; stroke: #3f3f3f; stroke-linejoin: miter"/>
   </g>
   <g id="line2d_14">
    <path d="M 199.08 235.24126 
L 199.08 253.17228 
" clip-path="url(#pc3f17cf7c0)" style="fill: none; stroke: #3f3f3f"/>
   </g>
   <g id="line2d_15">
    <path d="M 199.08 194.256536 
L 199.08 132.779586 
" clip-path="url(#pc3f17cf7c0)" style="fill: none; stroke: #3f3f3f"/>
   </g>
   <g id="line2d_16">
    <path d="M 187.92 253.17228 
L 210.24 253.17228 
" clip-path="url(#pc3f17cf7c0)" style="fill: none; stroke: #3f3f3f; stroke-linecap: square"/>
   </g>
   <g id="line2d_17">
    <path d="M 187.92 132.779586 
L 210.24 132.779586 
" clip-path="url(#pc3f17cf7c0)" style="fill: none; stroke: #3f3f3f; stroke-linecap: square"/>
   </g>
   <g id="patch_7">
    <path d="M 288.36 232.254089 
L 333 232.254089 
L 333 185.662756 
L 288.36 185.662756 
L 288.36 232.254089 
z
" clip-path="url(#pc3f17cf7c0)" style="fill: #3274a1; stroke: #3f3f3f; stroke-linejoin: miter"/>
   </g>
   <g id="line2d_18">
    <path d="M 310.68 232.254089 
L 310.68 253.098907 
" clip-path="url(#pc3f17cf7c0)" style="fill: none; stroke: #3f3f3f"/>
   </g>
   <g id="line2d_19">
    <path d="M 310.68 185.662756 
L 310.68 115.77622 
" clip-path="url(#pc3f17cf7c0)" style="fill: none; stroke: #3f3f3f"/>
   </g>
   <g id="line2d_20">
    <path d="M 299.52 253.098907 
L 321.84 253.098907 
" clip-path="url(#pc3f17cf7c0)" style="fill: none; stroke: #3f3f3f; stroke-linecap: square"/>
   </g>
   <g id="line2d_21">
    <path d="M 299.52 115.77622 
L 321.84 115.77622 
" clip-path="url(#pc3f17cf7c0)" style="fill: none; stroke: #3f3f3f; stroke-linecap: square"/>
   </g>
   <g id="patch_8">
    <path d="M 109.8 250.460567 
L 154.44 250.460567 
L 154.44 206.491501 
L 109.8 206.491501 
L 109.8 250.460567 
z
" clip-path="url(#pc3f17cf7c0)" style="fill: #e1812c; stroke: #3f3f3f; stroke-linejoin: miter"/>
   </g>
   <g id="line2d_22">
    <path d="M 132.12 250.460567 
L 132.12 256.32 
" clip-path="url(#pc3f17cf7c0)" style="fill: none; stroke: #3f3f3f"/>
   </g>
   <g id="line2d_23">
    <path d="M 132.12 206.491501 
L 132.12 140.537945 
" clip-path="url(#pc3f17cf7c0)" style="fill: none; stroke: #3f3f3f"/>
   </g>
   <g id="line2d_24">
    <path d="M 120.96 256.32 
L 143.28 256.32 
" clip-path="url(#pc3f17cf7c0)" style="fill: none; stroke: #3f3f3f; stroke-linecap: square"/>
   </g>
   <g id="line2d_25">
    <path d="M 120.96 140.537945 
L 143.28 140.537945 
" clip-path="url(#pc3f17cf7c0)" style="fill: none; stroke: #3f3f3f; stroke-linecap: square"/>
   </g>
   <g id="patch_9">
    <path d="M 221.4 253.965833 
L 266.04 253.965833 
L 266.04 222.112799 
L 221.4 222.112799 
L 221.4 253.965833 
z
" clip-path="url(#pc3f17cf7c0)" style="fill: #e1812c; stroke: #3f3f3f; stroke-linejoin: miter"/>
   </g>
   <g id="line2d_26">
    <path d="M 243.72 253.965833 
L 243.72 256.32 
" clip-path="url(#pc3f17cf7c0)" style="fill: none; stroke: #3f3f3f"/>
   </g>
   <g id="line2d_27">
    <path d="M 243.72 222.112799 
L 243.72 174.334115 
" clip-path="url(#pc3f17cf7c0)" style="fill: none; stroke: #3f3f3f"/>
   </g>
   <g id="line2d_28">
    <path d="M 232.56 256.32 
L 254.88 256.32 
" clip-path="url(#pc3f17cf7c0)" style="fill: none; stroke: #3f3f3f; stroke-linecap: square"/>
   </g>
   <g id="line2d_29">
    <path d="M 232.56 174.334115 
L 254.88 174.334115 
" clip-path="url(#pc3f17cf7c0)" style="fill: none; stroke: #3f3f3f; stroke-linecap: square"/>
   </g>
   <g id="patch_10">
    <path d="M 333 256.30568 
L 377.64 256.30568 
L 377.64 234.375492 
L 333 234.375492 
L 333 256.30568 
z
" clip-path="url(#pc3f17cf7c0)" style="fill: #e1812c; stroke: #3f3f3f; stroke-linejoin: miter"/>
   </g>
   <g id="line2d_30">
    <path d="M 355.32 256.30568 
L 355.32 256.32 
" clip-path="url(#pc3f17cf7c0)" style="fill: none; stroke: #3f3f3f"/>
   </g>
   <g id="line2d_31">
    <path d="M 355.32 234.375492 
L 355.32 201.480912 
" clip-path="url(#pc3f17cf7c0)" style="fill: none; stroke: #3f3f3f"/>
   </g>
   <g id="line2d_32">
    <path d="M 344.16 256.32 
L 366.48 256.32 
" clip-path="url(#pc3f17cf7c0)" style="fill: none; stroke: #3f3f3f; stroke-linecap: square"/>
   </g>
   <g id="line2d_33">
    <path d="M 344.16 201.480912 
L 366.48 201.480912 
" clip-path="url(#pc3f17cf7c0)" style="fill: none; stroke: #3f3f3f; stroke-linecap: square"/>
   </g>
   <g id="line2d_34">
    <path d="M 65.16 227.477177 
L 109.8 227.477177 
" clip-path="url(#pc3f17cf7c0)" style="fill: none; stroke: #3f3f3f"/>
   </g>
   <g id="line2d_35">
    <defs>
     <path id="m79369fe696" d="M 0 -3 
L -3 3 
L 3 3 
z
" style="stroke: #2ca02c; stroke-linejoin: miter"/>
    </defs>
    <g clip-path="url(#pc3f17cf7c0)">
     <use xlink:href="#m79369fe696" x="87.48" y="212.346804" style="fill: #2ca02c; stroke: #2ca02c; stroke-linejoin: miter"/>
    </g>
   </g>
   <g id="line2d_36">
    <path d="M 176.76 221.687091 
L 221.4 221.687091 
" clip-path="url(#pc3f17cf7c0)" style="fill: none; stroke: #3f3f3f"/>
   </g>
   <g id="line2d_37">
    <g clip-path="url(#pc3f17cf7c0)">
     <use xlink:href="#m79369fe696" x="199.08" y="206.224317" style="fill: #2ca02c; stroke: #2ca02c; stroke-linejoin: miter"/>
    </g>
   </g>
   <g id="line2d_38">
    <path d="M 288.36 216.39531 
L 333 216.39531 
" clip-path="url(#pc3f17cf7c0)" style="fill: none; stroke: #3f3f3f"/>
   </g>
   <g id="line2d_39">
    <g clip-path="url(#pc3f17cf7c0)">
     <use xlink:href="#m79369fe696" x="310.68" y="199.206929" style="fill: #2ca02c; stroke: #2ca02c; stroke-linejoin: miter"/>
    </g>
   </g>
   <g id="line2d_40">
    <path d="M 109.8 236.6052 
L 154.44 236.6052 
" clip-path="url(#pc3f17cf7c0)" style="fill: none; stroke: #3f3f3f"/>
   </g>
   <g id="line2d_41">
    <g clip-path="url(#pc3f17cf7c0)">
     <use xlink:href="#m79369fe696" x="132.12" y="220.750851" style="fill: #2ca02c; stroke: #2ca02c; stroke-linejoin: miter"/>
    </g>
   </g>
   <g id="line2d_42">
    <path d="M 221.4 245.834906 
L 266.04 245.834906 
" clip-path="url(#pc3f17cf7c0)" style="fill: none; stroke: #3f3f3f"/>
   </g>
   <g id="line2d_43">
    <g clip-path="url(#pc3f17cf7c0)">
     <use xlink:href="#m79369fe696" x="243.72" y="229.260915" style="fill: #2ca02c; stroke: #2ca02c; stroke-linejoin: miter"/>
    </g>
   </g>
   <g id="line2d_44">
    <path d="M 333 252.577291 
L 377.64 252.577291 
" clip-path="url(#pc3f17cf7c0)" style="fill: none; stroke: #3f3f3f"/>
   </g>
   <g id="line2d_45">
    <g clip-path="url(#pc3f17cf7c0)">
     <use xlink:href="#m79369fe696" x="355.32" y="235.908519" style="fill: #2ca02c; stroke: #2ca02c; stroke-linejoin: miter"/>
    </g>
   </g>
   <g id="patch_11">
    <path d="M 54 256.32 
L 54 34.56 
" style="fill: none; stroke: #000000; stroke-width: 0.8; stroke-linejoin: miter; stroke-linecap: square"/>
   </g>
   <g id="patch_12">
    <path d="M 388.8 256.32 
L 388.8 34.56 
" style="fill: none; stroke: #000000; stroke-width: 0.8; stroke-linejoin: miter; stroke-linecap: square"/>
   </g>
   <g id="patch_13">
    <path d="M 54 256.32 
L 388.8 256.32 
" style="fill: none; stroke: #000000; stroke-width: 0.8; stroke-linejoin: miter; stroke-linecap: square"/>
   </g>
   <g id="patch_14">
    <path d="M 54 34.56 
L 388.8 34.56 
" style="fill: none; stroke: #000000; stroke-width: 0.8; stroke-linejoin: miter; stroke-linecap: square"/>
   </g>
   <g id="legend_1">
    <g id="patch_15">
     <path d="M 61 71.91625 
L 176.926562 71.91625 
Q 178.926562 71.91625 178.926562 69.91625 
L 178.926562 41.56 
Q 178.926562 39.56 176.926562 39.56 
L 61 39.56 
Q 59 39.56 59 41.56 
L 59 69.91625 
Q 59 71.91625 61 71.91625 
z
" style="fill: #ffffff; opacity: 0.8; stroke: #cccccc; stroke-linejoin: miter"/>
    </g>
    <g id="patch_16">
     <path d="M 63 51.158437 
L 83 51.158437 
L 83 44.158437 
L 63 44.158437 
z
" style="fill: #3274a1; stroke: #3f3f3f; stroke-linejoin: miter"/>
    </g>
    <g id="text_12">
     <!-- Total Path -->
     <g transform="translate(91 51.158437)scale(0.1 -0.1)">
      <defs>
       <path id="DejaVuSans-54" d="M -19 4666 
L 3928 4666 
L 3928 4134 
L 2272 4134 
L 2272 0 
L 1638 0 
L 1638 4134 
L -19 4134 
L -19 4666 
z
" transform="scale(0.015625)"/>
       <path id="DejaVuSans-6f" d="M 1959 3097 
Q 1497 3097 1228 2736 
Q 959 2375 959 1747 
Q 959 1119 1226 758 
Q 1494 397 1959 397 
Q 2419 397 2687 759 
Q 2956 1122 2956 1747 
Q 2956 2369 2687 2733 
Q 2419 3097 1959 3097 
z
M 1959 3584 
Q 2709 3584 3137 3096 
Q 3566 2609 3566 1747 
Q 3566 888 3137 398 
Q 2709 -91 1959 -91 
Q 1206 -91 779 398 
Q 353 888 353 1747 
Q 353 2609 779 3096 
Q 1206 3584 1959 3584 
z
" transform="scale(0.015625)"/>
      </defs>
      <use xlink:href="#DejaVuSans-54"/>
      <use xlink:href="#DejaVuSans-6f" x="44.083984"/>
      <use xlink:href="#DejaVuSans-74" x="105.265625"/>
      <use xlink:href="#DejaVuSans-61" x="144.474609"/>
      <use xlink:href="#DejaVuSans-6c" x="205.753906"/>
      <use xlink:href="#DejaVuSans-20" x="233.537109"/>
      <use xlink:href="#DejaVuSans-50" x="265.324219"/>
      <use xlink:href="#DejaVuSans-61" x="321.126953"/>
      <use xlink:href="#DejaVuSans-74" x="382.40625"/>
      <use xlink:href="#DejaVuSans-68" x="421.615234"/>
     </g>
    </g>
    <g id="patch_17">
     <path d="M 63 65.836562 
L 83 65.836562 
L 83 58.836562 
L 63 58.836562 
z
" style="fill: #e1812c; stroke: #3f3f3f; stroke-linejoin: miter"/>
    </g>
    <g id="text_13">
     <!-- Fetal Partial Path -->
     <g transform="translate(91 65.836562)scale(0.1 -0.1)">
      <defs>
       <path id="DejaVuSans-72" d="M 2631 2963 
Q 2534 3019 2420 3045 
Q 2306 3072 2169 3072 
Q 1681 3072 1420 2755 
Q 1159 2438 1159 1844 
L 1159 0 
L 581 0 
L 581 3500 
L 1159 3500 
L 1159 2956 
Q 1341 3275 1631 3429 
Q 1922 3584 2338 3584 
Q 2397 3584 2469 3576 
Q 2541 3569 2628 3553 
L 2631 2963 
z
" transform="scale(0.015625)"/>
       <path id="DejaVuSans-69" d="M 603 3500 
L 1178 3500 
L 1178 0 
L 603 0 
L 603 3500 
z
M 603 4863 
L 1178 4863 
L 1178 4134 
L 603 4134 
L 603 4863 
z
" transform="scale(0.015625)"/>
      </defs>
      <use xlink:href="#DejaVuSans-46"/>
      <use xlink:href="#DejaVuSans-65" x="52.019531"/>
      <use xlink:href="#DejaVuSans-74" x="113.542969"/>
      <use xlink:href="#DejaVuSans-61" x="152.751953"/>
      <use xlink:href="#DejaVuSans-6c" x="214.03125"/>
      <use xlink:href="#DejaVuSans-20" x="241.814453"/>
      <use xlink:href="#DejaVuSans-50" x="273.601562"/>
      <use xlink:href="#DejaVuSans-61" x="329.404297"/>
      <use xlink:href="#DejaVuSans-72" x="390.683594"/>
      <use xlink:href="#DejaVuSans-74" x="431.796875"/>
      <use xlink:href="#DejaVuSans-69" x="471.005859"/>
      <use xlink:href="#DejaVuSans-61" x="498.789062"/>
      <use xlink:href="#DejaVuSans-6c" x="560.068359"/>
      <use xlink:href="#DejaVuSans-20" x="587.851562"/>
      <use xlink:href="#DejaVuSans-50" x="619.638672"/>
      <use xlink:href="#DejaVuSans-61" x="675.441406"/>
      <use xlink:href="#DejaVuSans-74" x="736.720703"/>
      <use xlink:href="#DejaVuSans-68" x="775.929688"/>
     </g>
    </g>
   </g>
  </g>
 </g>
 <defs>
  <clipPath id="pc3f17cf7c0">
   <rect x="54" y="34.56" width="334.8" height="221.76"/>
  </clipPath>
 </defs>
</svg>
